<svg width="428" height="428" viewBox="0 0 428 428" fill="none" xmlns="http://www.w3.org/2000/svg">
<rect width="428" height="428" rx="74" fill="#025CED"/>
<path d="M329.608 187.831L308.397 166.317C305.584 163.464 301.769 161.862 297.789 161.862H274V123.821C274 111.217 263.927 101 251.5 101H176.5C164.073 101 154 111.217 154 123.821V161.857H130.211C126.231 161.857 122.42 163.459 119.603 166.312L98.3922 187.831C95.5797 190.683 94 194.554 94 198.59V237.929H154V230.321C154 226.118 157.356 222.714 161.5 222.714H176.5C180.644 222.714 184 226.118 184 230.321V237.929H244V230.321C244 226.118 247.356 222.714 251.5 222.714H266.5C270.644 222.714 274 226.118 274 230.321V237.929H334V198.585C334 194.554 332.42 190.683 329.608 187.831ZM244 161.857H184V131.429H244V161.857ZM274 260.75C274 264.953 270.644 268.357 266.5 268.357H251.5C247.356 268.357 244 264.953 244 260.75V253.143H184V260.75C184 264.953 180.644 268.357 176.5 268.357H161.5C157.356 268.357 154 264.953 154 260.75V253.143H94V298.786C94 307.187 100.717 314 109 314H319C327.283 314 334 307.187 334 298.786V253.143H274V260.75Z" fill="white"/>
</svg>
